<?xml version="1.0" standalone="no"?>
<!DOCTYPE svg PUBLIC "-//W3C//DTD SVG 20010904//EN"
 "http://www.w3.org/TR/2001/REC-SVG-20010904/DTD/svg10.dtd">
<svg version="1.0" xmlns="http://www.w3.org/2000/svg"
 width="520.000000pt" height="520.000000pt" viewBox="0 0 520.000000 520.000000"
 preserveAspectRatio="xMidYMid meet">
<metadata>
Created by potrace 1.11, written by Peter Selinger 2001-2013
</metadata>
<g transform="translate(0.000000,520.000000) scale(0.100000,-0.100000)"
fill="#000000" stroke="none">
<path d="M3707 4935 c-87 -24 -160 -68 -233 -140 -140 -138 -194 -330 -149
-524 42 -177 190 -337 364 -392 91 -29 241 -29 332 0 320 102 472 477 318 784
-64 126 -215 245 -349 276 -62 14 -225 12 -283 -4z"/>
<path d="M1437 4100 c-95 -24 -177 -91 -223 -182 -39 -75 -45 -199 -14 -280
42 -112 147 -198 264 -216 324 -51 527 323 311 576 -71 83 -227 130 -338 102z"/>
<path d="M2587 3435 c-357 -68 -629 -349 -688 -710 -15 -93 -6 -275 16 -360
40 -148 143 -317 253 -416 176 -157 383 -229 625 -216 211 10 381 84 536 231
176 168 263 378 262 631 -1 391 -243 711 -618 820 -112 33 -274 41 -386 20z"/>
<path d="M4532 3139 c-113 -15 -209 -87 -261 -198 -22 -48 -26 -69 -26 -146 1
-108 20 -160 91 -235 70 -74 138 -104 244 -105 73 0 94 4 145 28 78 36 137 95
171 171 24 51 28 75 29 146 0 77 -3 92 -33 152 -67 137 -201 207 -360 187z"/>
<path d="M599 2667 c-232 -79 -369 -270 -369 -516 0 -149 43 -267 137 -371
207 -231 573 -236 786 -10 37 38 76 89 88 112 85 167 88 353 7 518 -62 128
-212 248 -348 279 -81 19 -227 13 -301 -12z"/>
<path d="M3021 1100 c-181 -66 -291 -225 -291 -419 0 -147 62 -276 172 -357
90 -66 134 -79 269 -79 113 0 116 1 191 38 131 65 218 183 241 326 30 197 -65
381 -241 468 -71 36 -82 38 -181 41 -86 2 -116 -1 -160 -18z"/>
</g>
</svg>
