<?xml version="1.0" encoding="utf-8"?>
<!-- Generator: Adobe Illustrator 21.0.2, SVG Export Plug-In . SVG Version: 6.00 Build 0)  -->
<svg version="1.1" id="Layer_1" xmlns="http://www.w3.org/2000/svg" xmlns:xlink="http://www.w3.org/1999/xlink" x="0px" y="0px"
	 viewBox="0 0 168.7 41.3" style="enable-background:new 0 0 168.7 41.3;" xml:space="preserve">
<style type="text/css">
	.st0{fill:#000333;}
	.st1{fill:#00DBFF;}
</style>
<path class="st0" d="M62.4,20.4v6.5h-3.4v-6.6c0-1-0.1-1.7-0.4-2.1c-0.3-0.4-0.8-0.7-1.4-0.7c-0.6,0-1.2,0.2-1.7,0.7
	c-0.5,0.5-0.7,1.2-0.7,2.1v6.5h-3.3v-12h3.3v1.4c0.9-1,2-1.6,3.2-1.6c0.8,0,1.4,0.2,2.1,0.7c0.6,0.4,1.1,1,1.4,1.6
	c0.5-0.7,1.1-1.3,1.9-1.7c0.8-0.4,1.6-0.6,2.4-0.6c1.4,0,2.6,0.4,3.4,1.3c0.9,0.8,1.3,2.1,1.3,3.6v7.3h-3.4v-6.6
	c0-1.8-0.7-2.8-2-2.8c-0.7,0-1.2,0.2-1.7,0.7C62.7,18.8,62.4,19.5,62.4,20.4"/>
<path class="st0" d="M85.3,20.9c0,1.7-0.6,3.2-1.8,4.4c-1.2,1.2-2.7,1.8-4.5,1.8c-1.8,0-3.3-0.6-4.5-1.8c-1.2-1.2-1.8-2.7-1.8-4.4
	s0.6-3.2,1.8-4.4c1.2-1.2,2.7-1.8,4.5-1.8c1.8,0,3.3,0.6,4.5,1.8C84.7,17.7,85.3,19.1,85.3,20.9 M76,20.9c0,1,0.3,1.8,0.8,2.4
	c0.6,0.6,1.3,0.9,2.1,0.9c0.9,0,1.6-0.3,2.1-0.9c0.6-0.6,0.8-1.4,0.8-2.4c0-1-0.3-1.8-0.8-2.4c-0.6-0.6-1.3-0.9-2.1-0.9
	c-0.9,0-1.6,0.3-2.1,0.9C76.3,19.1,76,19.9,76,20.9"/>
<path class="st0" d="M94.7,14.7c1.5,0,2.7,0.6,3.8,1.7c1.1,1.1,1.6,2.6,1.6,4.4c0,1.8-0.6,3.3-1.7,4.5c-1.1,1.2-2.4,1.8-3.8,1.8
	c-1.4,0-2.6-0.6-3.5-1.8v1.6h-3.3V10.3h3.3v5.9C92.1,15.2,93.3,14.7,94.7,14.7 M91.1,20.9c0,1,0.3,1.8,0.8,2.4
	c0.5,0.6,1.2,0.9,2,0.9c0.8,0,1.4-0.3,2-0.9c0.6-0.6,0.9-1.4,0.9-2.4c0-1-0.3-1.8-0.8-2.4c-0.6-0.7-1.2-1-2-1c-0.8,0-1.5,0.3-2,1
	C91.4,19.1,91.1,19.9,91.1,20.9"/>
<path class="st0" d="M102.9,13.4c-0.4-0.4-0.6-0.8-0.6-1.4c0-0.5,0.2-1,0.6-1.4c0.4-0.4,0.8-0.6,1.4-0.6c0.5,0,1,0.2,1.4,0.6
	c0.4,0.4,0.6,0.8,0.6,1.4c0,0.6-0.2,1-0.6,1.4c-0.4,0.4-0.8,0.6-1.4,0.6C103.8,13.9,103.3,13.7,102.9,13.4 M106,26.9h-3.3v-12h3.3
	V26.9z"/>
<rect x="109.2" y="10.3" class="st0" width="3.3" height="16.6"/>
<path class="st0" d="M126.1,25.1c-1.4,1.3-2.9,1.9-4.8,1.9c-1.8,0-3.3-0.6-4.5-1.7c-1.2-1.1-1.8-2.6-1.8-4.5c0-1.9,0.6-3.4,1.8-4.5
	c1.2-1.1,2.6-1.7,4.3-1.7c1.7,0,3.1,0.5,4.2,1.5c1.2,1,1.7,2.4,1.7,4.1v1.8h-8.7c0.1,0.7,0.4,1.2,1,1.6c0.6,0.4,1.2,0.6,2,0.6
	c1.2,0,2.1-0.4,2.9-1.2L126.1,25.1z M122.9,18c-0.5-0.4-1-0.6-1.7-0.6c-0.7,0-1.3,0.2-1.8,0.6c-0.6,0.4-0.9,0.9-1,1.6h5.3
	C123.6,19,123.3,18.4,122.9,18"/>
<path class="st0" d="M146.6,22h-9.3c0.1,0.9,0.5,1.6,1.2,2.1c0.7,0.5,1.6,0.8,2.5,0.8c1.5,0,2.6-0.5,3.4-1.4l1.4,1.6
	c-1.3,1.3-2.9,2-5,2c-1.7,0-3.1-0.6-4.2-1.7c-1.2-1.1-1.8-2.6-1.8-4.5c0-1.9,0.6-3.4,1.8-4.4c1.2-1.1,2.6-1.7,4.2-1.7
	c1.6,0,3,0.5,4.1,1.5c1.1,1,1.7,2.3,1.7,4V22z M137.3,20.1h6.8c0-1-0.3-1.8-0.9-2.3c-0.6-0.5-1.4-0.8-2.3-0.8
	c-0.9,0-1.7,0.3-2.5,0.8C137.7,18.4,137.3,19.1,137.3,20.1"/>
<path class="st0" d="M155.6,17.4c-1.2,0-2.2,0.4-2.8,1.2c-0.6,0.8-0.9,1.9-0.9,3.2v5.1h-2.5V15h2.5v2.4c0.4-0.7,0.9-1.4,1.6-1.8
	c0.7-0.5,1.4-0.7,2.2-0.7l0,2.5H155.6z"/>
<path class="st0" d="M167.8,26.9h-2.3v-1.6c-1,1.2-2.3,1.8-3.9,1.8c-1.2,0-2.3-0.3-3.1-1c-0.8-0.7-1.2-1.6-1.2-2.8
	c0-1.2,0.4-2,1.3-2.6c0.9-0.6,2-0.9,3.5-0.9h3.2v-0.4c0-1.6-0.9-2.4-2.6-2.4c-1.1,0-2.2,0.4-3.4,1.2l-1.1-1.6
	c1.4-1.1,3.1-1.7,4.9-1.7c1.4,0,2.5,0.4,3.4,1.1c0.9,0.7,1.3,1.8,1.3,3.3V26.9z M165.3,22.5v-1h-2.8c-1.8,0-2.7,0.6-2.7,1.7
	c0,0.6,0.2,1,0.7,1.3c0.4,0.3,1.1,0.5,1.9,0.5c0.8,0,1.5-0.2,2.1-0.7C165,23.8,165.3,23.2,165.3,22.5"/>
<circle class="st1" cx="30.6" cy="5.5" r="4.5"/>
<circle class="st1" cx="11.4" cy="10.8" r="2.8"/>
<circle class="st1" cx="24.9" cy="36" r="3.6"/>
<ellipse transform="matrix(0.6365 -0.7713 0.7713 0.6365 -1.0655 35.035)" class="st1" cx="36.6" cy="18.6" rx="2.8" ry="2.8"/>
<circle class="st1" cx="5.1" cy="24" r="4.4"/>
<path class="st1" d="M28.4,20.4c0,3.9-3.1,7-7,7c-3.9,0-7-3.1-7-7c0-3.9,3.1-7,7-7C25.3,13.4,28.4,16.5,28.4,20.4"/>
</svg>
